<?xml version="1.0" encoding="utf-8"?>
<!-- Svg Vector Icons : http://www.onlinewebfonts.com/icon -->
<!DOCTYPE svg PUBLIC "-//W3C//DTD SVG 1.1//EN" "http://www.w3.org/Graphics/SVG/1.1/DTD/svg11.dtd">
<svg version="1.1" xmlns="http://www.w3.org/2000/svg" xmlns:xlink="http://www.w3.org/1999/xlink" x="0px" y="0px" viewBox="0 0 256 256" enable-background="new 0 0 256 256" xml:space="preserve">
<metadata> Svg Vector Icons : http://www.onlinewebfonts.com/icon </metadata>
<g><g><g><path fill="#000000" d="M231.7,140.5c0-10.4-5.8-19.2-14-22.8c-0.7-9.2-1.2-17.3-0.9-20.8c0.8-10.1,8.1-52,0.8-62.6c-6.1-8.9-17.2-12.9-20.5-13.9L172.2,10l-7.5,12.6l23.5,12.6c2.8,1.7,14.3,9.1,17.8,15c1.7,2.9,2.6,8.1,3.2,13.1c-2.4-4.1-5.5-8.5-9.4-12.9C187.9,37,166.4,21.2,130,21.2c-0.8,0-1.7,0-2.6,0c-31.4,0.6-55.7,10-72.3,28c-12,13-17.7,28.6-19,38.8c-1.3,7.7-1.3,18.8-0.4,30.9c-6.8,4.2-11.4,12.2-11.4,21.5c0,10.9,6.3,20,15,23.4c7.8,46.7,44.3,82.1,88.1,82.1c21.2,0,40.8-8.4,56.1-22.3c-3.3,7.1-5.6,12.3-5.7,13.3c-0.3,3.6,9,10.6,10.7,8.7c1.6-1.9,26-61.4,26.8-68.2c0.4-3.6,0.6-9,0.6-13.3C225,161,231.7,151.7,231.7,140.5z M187.3,32.2l-19.4-10.4l5.3-8.8l20.5,8.6L187.3,32.2z M195.1,53.9c8,9,12.4,18.2,14.5,23.5c-0.3,4.4,0.2,16.3,0.7,30.2c-11.1-30.7-35.4-53.7-64.9-60.6c0-0.3,0.1-0.6-0.1-0.8l-2.4-4.4c-0.4-4.7-2.2-8.9-4.9-12.2v-2.5C161.8,28.8,180.9,37.8,195.1,53.9z M125.4,31c5.6,0,10.2,5.7,10.2,12.7c0,0.5-0.1,1.1-0.1,1.6c-2.6-0.2-5.3-0.5-8-0.5c-4.1,0-8.1,0.4-12,1c-0.1-0.7-0.2-1.4-0.2-2.1C115.2,36.7,119.8,31,125.4,31z M42,88.8c0.4-3.2,3.2-20.3,17.5-35.7c13.1-14.2,31.7-22.7,55.2-25.3c-4.2,3.7-7,9.4-7,15.9c0,0.8,0.1,1.5,0.2,2.3l-0.1,0.2c-0.2,0.4-0.2,0.8-0.1,1.2c-31.5,8-56.7,34.7-65.9,69.1c-0.6,0.1-1.1,0.4-1.6,0.6C38.4,99.4,41.3,94.1,42,88.8z M32,140.5c0-5,1.8-9.5,4.6-12.6c0.4,4.1,0.9,8.4,1.5,12.6c-0.1,1.7-0.2,3.3-0.2,5c0,3.1,0.1,6.2,0.4,9.2C34.5,151.6,32,146.4,32,140.5z M127.4,238.6c-32.8,0-61.2-22.1-74.2-53.8c-2.2-7.2-4.8-18.6-7.5-32.7c-0.1-2.2-0.3-4.5-0.3-6.7c0-51.4,36.8-93.2,82.1-93.2c45.3,0,82.1,41.8,82.1,93.2S172.7,238.6,127.4,238.6z M220.6,151.4c-0.5-5.8-1.3-15-2.1-24.4c3.4,3.2,5.7,8,5.7,13.6C224.1,144.7,222.7,148.4,220.6,151.4z"/></g><g></g><g></g><g></g><g></g><g></g><g></g><g></g><g></g><g></g><g></g><g></g><g></g><g></g><g></g><g></g></g></g>
</svg>